<svg width="50" height="50" viewBox="0 0 50 50" fill="none" xmlns="http://www.w3.org/2000/svg">
<g clip-path="url(#clip0)">
<path d="M33.2986 40.2989L29.1353 44.329L30.1124 49.9861L25 47.317L19.8876 49.9861L20.8646 44.329L16.7014 40.2989L22.4524 39.469L25 34.3428L27.5476 39.469L33.2986 40.2989ZM49.9935 40.3119L44.2424 39.482L41.6949 34.3558L39.1473 39.482L33.3962 40.3119L37.5595 44.342L36.5825 49.9991L41.695 47.33L46.8074 49.9991L45.8304 44.342L49.9935 40.3119ZM10.8528 39.4257L8.3051 34.2959L5.75751 39.4257L0.00646973 40.2561L4.16974 44.289L3.19275 49.9501L8.30519 47.2791L13.4176 49.9501L12.4406 44.289L16.6039 40.2561L10.8528 39.4257ZM11.1964 31.9697L7.43979 30.9025C8.50934 27.1376 10.8175 23.7461 13.9393 21.3529C15.2114 20.3776 16.5821 19.5846 18.0255 18.9805C15.6665 17.009 14.1629 14.0462 14.1629 10.7384C14.1629 4.81672 18.9806 -0.000976562 24.9023 -0.000976562C30.8241 -0.000976562 35.6417 4.81672 35.6417 10.7384C35.6417 13.9864 34.1922 16.902 31.9064 18.8729C33.4297 19.4823 34.8751 20.3006 36.212 21.3192C39.3242 23.6902 41.6369 27.0549 42.7241 30.7932L38.9742 31.8837C37.1923 25.757 31.4861 21.4779 25.0976 21.4779C18.6676 21.4779 12.9513 25.7922 11.1964 31.9697ZM18.0682 10.7385C18.0682 14.5069 21.134 17.5727 24.9023 17.5727C28.6707 17.5727 31.7365 14.5069 31.7365 10.7385C31.7365 6.97016 28.6707 3.90436 24.9023 3.90436C21.134 3.90436 18.0682 6.97016 18.0682 10.7385Z" fill="#1A3B5A"/>
</g>
<defs>
<clipPath id="clip0">
<rect width="50" height="50" fill="white"/>
</clipPath>
</defs>
</svg>
