<svg width="50" height="50" viewBox="0 0 50 50" fill="none" xmlns="http://www.w3.org/2000/svg">
<path d="M39.4792 30.8017C38.498 28.7559 34.9875 25.9162 31.5959 23.1725C29.7042 21.6433 27.9167 20.1975 26.7772 19.0579C26.4917 18.7704 26.0647 18.6787 25.6876 18.8142C24.9856 19.0684 24.5522 19.2642 24.2106 19.4162C23.6898 19.6495 23.5148 19.7287 22.8126 19.7995C22.5022 19.8308 22.2231 19.9975 22.0501 20.2558C20.5772 22.4578 19.0522 22.2703 18.0334 21.9287C17.7084 21.8204 17.6501 21.6808 17.6189 21.5475C17.4001 20.6329 18.4981 18.5037 19.9209 17.0808C23.3064 13.6933 25.0522 12.8453 28.7397 14.4933C32.923 16.3641 37.1147 17.8287 37.1564 17.8433C37.7043 18.0328 38.2939 17.7453 38.4834 17.2016C38.6709 16.6578 38.3855 16.0641 37.8417 15.8745C37.8 15.86 33.6917 14.4245 29.5917 12.5891C24.8147 10.4536 22.1938 11.8599 18.45 15.6058C17.025 17.0308 15.0896 19.9141 15.5896 22.0287C15.8041 22.9287 16.4375 23.5954 17.3791 23.9058C19.7396 24.685 21.8937 23.9391 23.4979 21.81C24.1604 21.7079 24.5208 21.5579 25.0624 21.3142C25.2582 21.2267 25.4874 21.1246 25.7916 21.0017C26.9833 22.1204 28.5916 23.4225 30.2854 24.7912C33.3479 27.2683 36.8208 30.0767 37.6021 31.7017C37.9875 32.5037 37.5729 33.0267 37.2916 33.2662C36.8791 33.6204 36.3146 33.7329 36.0083 33.5183C35.6708 33.287 35.2313 33.2725 34.8833 33.4808C34.5333 33.6891 34.3375 34.0828 34.3813 34.487C34.4521 35.1495 33.8458 35.5287 33.5833 35.66C32.9166 35.9975 32.2208 35.9392 31.9604 35.6975C31.6687 35.4267 31.2499 35.3475 30.8791 35.485C30.5083 35.6245 30.2499 35.9662 30.2124 36.362C30.1499 37.0453 29.6437 37.7016 28.9832 37.9578C28.6645 38.0786 28.202 38.1516 27.7874 37.7724C27.5291 37.5391 27.1707 37.4494 26.8354 37.5307C26.4958 37.614 26.2229 37.8599 26.1041 38.1869C26.0646 38.2911 25.9749 38.5411 24.9999 38.5411C24.3062 38.5411 23.0582 38.0724 22.4479 37.6682C21.7166 37.1869 17.1312 33.7661 13.1708 30.4494C12.6146 29.9807 11.6521 28.9765 10.8021 28.089C10.0479 27.3015 9.35832 26.5869 9.00412 26.2869C8.56037 25.9119 7.90412 25.9682 7.53537 26.4099C7.16457 26.8494 7.21867 27.5078 7.65832 27.8786C7.98127 28.1516 8.60627 28.8119 9.29582 29.5307C10.225 30.5015 11.1854 31.5057 11.8313 32.0474C15.7105 35.2953 20.373 38.8016 21.3021 39.4119C22.0688 39.9161 23.7208 40.6244 25 40.6244C26.0271 40.6244 26.8167 40.389 27.3646 39.9286C28.0979 40.2141 28.9313 40.2161 29.7333 39.9036C30.6813 39.5369 31.4604 38.7974 31.9021 37.9016C32.7229 38.0766 33.6625 37.9536 34.5166 37.5245C35.3521 37.1037 35.9562 36.46 36.2562 35.7078C37.0854 35.7516 37.9395 35.4578 38.6457 34.8516C39.8417 33.8287 40.1708 32.2371 39.4792 30.8017Z" fill="#1A3B5A"/>
<path d="M20.8333 13.5413H11.4583C10.8833 13.5413 10.4166 14.008 10.4166 14.583C10.4166 15.158 10.8833 15.6247 11.4583 15.6247H20.8333C21.4083 15.6247 21.875 15.158 21.875 14.583C21.875 14.008 21.4083 13.5413 20.8333 13.5413Z" fill="#1A3B5A"/>
<path d="M42.5313 28.5851C42.2083 28.108 41.5625 27.9768 41.0855 28.3018L38.0397 30.3476C37.5626 30.6684 37.4355 31.3163 37.7564 31.7934C37.9584 32.0913 38.2876 32.2538 38.6231 32.2538C38.821 32.2538 39.0231 32.1976 39.2023 32.0768L42.2481 30.031C42.725 29.7101 42.8521 29.0622 42.5313 28.5851Z" fill="#1A3B5A"/>
<path d="M36.0645 33.556C35.3187 32.9685 31.9832 29.5539 29.9208 27.4039C29.5228 26.9872 28.8625 26.9727 28.4478 27.3727C28.0311 27.7706 28.0186 28.431 28.4166 28.8456C28.952 29.4039 33.6748 34.3269 34.7728 35.1936C34.9623 35.3436 35.1915 35.4165 35.4165 35.4165C35.7228 35.4165 36.029 35.279 36.2373 35.0186C36.5937 34.5685 36.5166 33.9122 36.0645 33.556Z" fill="#1A3B5A"/>
<path d="M31.902 35.6456C30.6541 34.6476 27.5187 31.3164 26.8103 30.5456C26.4186 30.1206 25.7624 30.0956 25.3374 30.4831C24.9144 30.8726 24.8853 31.5331 25.2749 31.956C25.3124 31.9956 29.0541 36.0352 30.5999 37.2727C30.7916 37.4248 31.0228 37.4998 31.2499 37.4998C31.5541 37.4998 31.8582 37.3643 32.0644 37.1102C32.4229 36.6601 32.35 36.0039 31.902 35.6456Z" fill="#1A3B5A"/>
<path d="M27.7563 37.7436C26.2709 36.4915 23.2313 33.2561 22.6376 32.6206C22.2438 32.1998 21.5834 32.1769 21.1646 32.5706C20.7438 32.9644 20.7229 33.6227 21.1146 34.0436C21.9688 34.9581 24.8771 38.0415 26.4126 39.3373C26.6084 39.5019 26.8459 39.5831 27.0834 39.5831C27.3792 39.5831 27.6751 39.4561 27.8813 39.2123C28.2521 38.7706 28.1959 38.1144 27.7563 37.7436Z" fill="#1A3B5A"/>
<path d="M12.175 11.7436C10.3896 10.0519 3.25 9.50396 1.1042 9.3769C0.808398 9.36235 0.535449 9.46021 0.327148 9.65816C0.11875 9.85396 0 10.129 0 10.4165V29.1665C0 29.7415 0.466699 30.2082 1.0417 30.2082H7.2917C7.7417 30.2082 8.1417 29.9186 8.28125 29.4894C8.4333 29.0227 12.0229 18.0061 12.4958 12.5894C12.5229 12.2727 12.4062 11.9602 12.175 11.7436ZM6.53125 28.1249H2.0833V11.5332C5.43125 11.7977 9.04375 12.3727 10.3562 13.0102C9.8042 17.5727 7.30625 25.679 6.53125 28.1249Z" fill="#1A3B5A"/>
<path d="M48.9583 11.458C40.7791 11.458 36.2416 13.5518 36.052 13.6393C35.7812 13.7663 35.5791 14.0018 35.4958 14.2872C35.4125 14.5727 35.4541 14.8789 35.6103 15.133C36.8978 17.206 40.9291 28.7184 41.7041 31.5267C41.8291 31.9788 42.2395 32.2913 42.7083 32.2913H48.9583C49.5333 32.2913 50 31.8246 50 31.2496V12.4996C50 11.9226 49.5333 11.458 48.9583 11.458ZM47.9167 30.208H43.4875C42.5 26.9913 39.5833 18.6038 37.9562 15.1372C39.5458 14.5977 42.9604 13.6705 47.9167 13.5539V30.208Z" fill="#1A3B5A"/>
</svg>
