<svg width="50" height="50" viewBox="0 0 50 50" fill="none" xmlns="http://www.w3.org/2000/svg">
<path d="M23.0469 24.4141H44.5312C45.3402 24.4141 45.9961 23.7582 45.9961 22.9492V1.46484C45.9961 0.655859 45.3402 0 44.5312 0H23.0469C22.2379 0 21.582 0.655859 21.582 1.46484V22.9492C21.582 23.7582 22.2379 24.4141 23.0469 24.4141ZM32.3242 2.92969H35.2539V6.71748L33.7891 8.18232L32.3242 6.71748V2.92969ZM24.5117 2.92969H29.3945V7.32422C29.3945 7.7127 29.5488 8.08535 29.8235 8.36006L32.7532 11.2897C33.3253 11.8618 34.2527 11.8618 34.8248 11.2897L37.7545 8.36006C38.0293 8.08535 38.1836 7.7127 38.1836 7.32422V2.92969H43.0664V21.4844H24.5117V2.92969Z" fill="#1A3B5A"/>
<path d="M49.6327 33.7824C48.738 31.3243 45.9294 30.1608 43.5585 31.2661L34.804 35.3476C34.5468 33.5124 33.1386 31.9698 31.215 31.6306L27.2282 30.9277C25.8194 30.6792 24.5056 30.1449 23.3233 29.3394C19.887 26.9983 15.5027 26.4496 11.5954 27.8717L8.58135 28.9688L8.44502 28.5942C8.31221 28.2291 8.03975 27.9318 7.6876 27.7676C7.33555 27.6035 6.93281 27.5858 6.56748 27.7188L1.06152 29.7227C0.482812 29.9333 0.0976562 30.4833 0.0976562 31.0992V48.5349C0.0976562 49.3438 0.753516 49.9997 1.5625 49.9997H7.90859C8.07949 49.9997 8.24902 49.9698 8.40957 49.9113L13.9155 47.9073C14.2806 47.7745 14.5779 47.5021 14.7421 47.1499C14.8312 46.9587 14.8756 46.7524 14.8776 46.5455L27.3933 48.2655C27.7296 48.3117 28.0657 48.3347 28.4004 48.3347C29.5771 48.3347 30.7332 48.0508 31.7903 47.4968L47.5123 39.257C49.4903 38.2204 50.3965 35.8808 49.6327 33.7824ZM7.65029 47.07H3.02734V32.1248L6.19307 30.9726L11.5371 45.6553L7.65029 47.07ZM46.1525 36.662L30.4305 44.9019C29.6158 45.3289 28.7031 45.4882 27.7922 45.3631L13.851 43.4472L9.5833 31.7217L12.5974 30.6246C15.6213 29.5241 19.0143 29.9488 21.6736 31.7605C23.2014 32.8013 24.8989 33.4918 26.7194 33.8127L30.7062 34.5157C31.5029 34.6562 32.035 35.4158 31.8944 36.2126C31.7539 37.0093 30.9942 37.5413 30.1975 37.4008L20.8818 35.7582C20.0855 35.6177 19.3254 36.1497 19.185 36.9464C19.0445 37.7431 19.5765 38.5029 20.3731 38.6433L29.6887 40.2859C31.0571 40.5272 32.3886 40.1063 33.3564 39.2545L44.7963 33.9211C45.6095 33.542 46.5728 33.941 46.8796 34.7841C47.1417 35.5041 46.8309 36.3066 46.1525 36.662Z" fill="#1A3B5A"/>
</svg>
