<svg width="422" height="209" viewBox="0 0 422 209" fill="none" xmlns="http://www.w3.org/2000/svg">
<path d="M106.096 66.8799C100.617 66.8799 95.1913 67.826 90.1292 69.664C85.0671 71.5021 80.4678 74.1961 76.5933 77.5924C72.719 80.9888 69.6458 85.0207 67.5489 89.4582C65.4522 93.8956 64.3729 98.6519 64.3729 103.455C64.3729 108.258 65.4522 113.014 67.5489 117.452C69.6458 121.889 72.719 125.921 76.5933 129.317C80.4678 132.714 85.0671 135.408 90.1292 137.246C95.1913 139.084 100.617 140.03 106.096 140.03V121.742C103.356 121.742 100.644 121.269 98.1127 120.35C95.5816 119.431 93.2818 118.084 91.3447 116.386C89.4075 114.688 87.8709 112.672 86.8226 110.453C85.774 108.235 85.2345 105.857 85.2345 103.455C85.2345 101.053 85.774 98.6753 86.8226 96.4565C87.8709 94.2378 89.4075 92.2218 91.3447 90.5236C93.2818 88.8255 95.5816 87.4785 98.1127 86.5595C100.644 85.6404 103.356 85.1674 106.096 85.1674V66.8799Z" fill="#C9C9C9"/>
<path d="M106.096 115.647C113.777 115.647 120.004 110.189 120.004 103.455C120.004 96.7221 113.777 91.2637 106.096 91.2637C98.4153 91.2637 92.1886 96.7221 92.1886 103.455C92.1886 110.189 98.4153 115.647 106.096 115.647Z" fill="#C9C9C9"/>
<path d="M64.3729 103.455C64.3729 108.258 65.4522 113.014 67.5489 117.452C69.6458 121.889 72.719 125.921 76.5933 129.318C80.4678 132.714 85.0671 135.408 90.1292 137.246C95.1913 139.084 100.617 140.03 106.096 140.03C111.575 140.03 117.001 139.084 122.063 137.246C127.125 135.408 131.724 132.714 135.599 129.318C139.473 125.921 142.546 121.889 144.643 117.452C146.74 113.014 147.819 108.258 147.819 103.455H126.958C126.958 105.857 126.418 108.235 125.37 110.453C124.321 112.672 122.785 114.688 120.847 116.386C118.91 118.084 116.611 119.431 114.08 120.35C111.548 121.27 108.836 121.743 106.096 121.743C103.356 121.743 100.644 121.27 98.1127 120.35C95.5816 119.431 93.2818 118.084 91.3447 116.386C89.4075 114.688 87.8709 112.672 86.8226 110.453C85.774 108.235 85.2345 105.857 85.2345 103.455H64.3729Z" fill="#424242"/>
<path d="M120.004 103.455C120.004 100.222 118.539 97.1211 115.931 94.8346C113.322 92.5482 109.785 91.2637 106.096 91.2637C102.408 91.2637 98.8703 92.5482 96.262 94.8346C93.6537 97.1211 92.1884 100.222 92.1884 103.455H106.096H120.004Z" fill="#424242"/>
<path d="M169.61 89.7129H164.428V114.95H169.61V89.7129Z" fill="#C9C9C9"/>
<path d="M172.994 106.008C172.994 111.849 177.6 115.454 183.687 115.454C189.773 115.454 194.38 111.849 194.38 106.008C194.38 100.168 189.773 96.5625 183.687 96.5625C177.6 96.5625 172.994 100.168 172.994 106.008ZM178.176 106.008C178.176 102.547 180.479 100.528 183.687 100.528C186.894 100.528 189.198 102.547 189.198 106.008C189.198 109.469 186.894 111.488 183.687 111.488C180.479 111.488 178.176 109.469 178.176 106.008Z" fill="#C9C9C9"/>
<path d="M212.898 97.0672V99.4827H212.486C211.253 97.9325 209.279 96.5625 205.742 96.5625C200.889 96.5625 196.529 100.168 196.529 105.72C196.529 111.272 200.889 114.877 205.742 114.877C209.279 114.877 211.253 113.471 212.404 112.065H212.816V113.796C212.816 117.257 210.512 118.843 207.14 118.843C203.768 118.843 202.04 117.257 201.341 115.202L196.694 116.968C197.763 119.672 200.889 122.665 207.222 122.665C213.72 122.665 217.998 119.672 217.998 113.904V97.0672H212.898ZM207.304 110.984C204.097 110.984 201.711 108.965 201.711 105.72C201.711 102.475 204.097 100.456 207.304 100.456C210.512 100.456 212.898 102.475 212.898 105.72C212.898 108.965 210.512 110.984 207.304 110.984Z" fill="#C9C9C9"/>
<path d="M221.35 106.008C221.35 111.849 225.956 115.454 232.043 115.454C238.13 115.454 242.736 111.849 242.736 106.008C242.736 100.168 238.13 96.5625 232.043 96.5625C225.956 96.5625 221.35 100.168 221.35 106.008ZM226.532 106.008C226.532 102.547 228.835 100.528 232.043 100.528C235.251 100.528 237.554 102.547 237.554 106.008C237.554 109.469 235.251 111.488 232.043 111.488C228.835 111.488 226.532 109.469 226.532 106.008Z" fill="#C9C9C9"/>
<path d="M246.803 91.8769C246.803 93.7157 248.408 94.9774 250.465 94.9774C252.521 94.9774 254.125 93.7157 254.125 91.8769C254.125 90.0383 252.521 88.7764 250.465 88.7764C248.408 88.7764 246.803 90.0383 246.803 91.8769ZM253.055 97.0684H247.874V114.95H253.055V97.0684Z" fill="#424242"/>
<path d="M257.673 122.16H262.856V112.642H263.266C264.418 114.084 266.392 115.454 269.93 115.454C274.782 115.454 279.142 111.849 279.142 106.008C279.142 100.168 274.782 96.5625 269.93 96.5625C266.392 96.5625 264.418 97.9325 263.185 99.4829H262.772V97.0672H257.673V122.16ZM268.366 111.56C265.159 111.56 262.772 109.541 262.772 106.008C262.772 102.475 265.159 100.456 268.366 100.456C271.575 100.456 273.959 102.475 273.959 106.008C273.959 109.541 271.575 111.56 268.366 111.56Z" fill="#424242"/>
<path d="M282.165 102.079C282.165 105.612 285.537 106.91 289.814 107.631L290.884 107.811C293.433 108.244 294.585 108.784 294.585 109.938C294.585 111.092 293.433 111.993 291.049 111.993C288.662 111.993 286.731 111.128 286.195 108.532L281.424 109.614C282.125 113.363 285.701 115.454 291.049 115.454C296.23 115.454 299.603 113.327 299.603 109.578C299.603 105.828 296.149 104.819 291.542 104.025L290.472 103.845C288.333 103.485 287.182 102.98 287.182 101.79C287.182 100.709 288.252 100.024 290.226 100.024C292.2 100.024 293.598 100.745 294.091 102.691L298.781 101.43C297.794 98.5455 294.792 96.5625 290.226 96.5625C285.372 96.5625 282.165 98.5455 282.165 102.079Z" fill="#424242"/>
<path d="M322.88 114.95V97.0684H317.699V106.298C317.699 109.615 315.849 111.561 312.681 111.561C309.884 111.561 308.322 110.228 308.322 107.524V97.0684H303.139V107.74C303.139 112.174 306.308 115.239 311.078 115.239C314.819 115.239 316.548 113.797 317.37 112.283H317.78V114.95H322.88Z" fill="#424242"/>
<path d="M327.477 97.0677V114.95H332.66V104.278C332.66 101.827 333.976 100.457 336.36 100.457C338.418 100.457 339.65 101.466 339.65 103.413V114.95H344.834V104.278C344.834 101.827 346.15 100.457 348.534 100.457C350.591 100.457 351.824 101.466 351.824 103.413V114.95H357.007V103.197C357.007 98.8703 353.963 96.7793 350.179 96.7793C346.848 96.7793 345.327 98.0772 344.34 99.5914H343.928C342.981 97.897 341.296 96.7793 338.334 96.7793C335.373 96.7793 333.769 97.933 332.989 99.303H332.577V97.0677H327.477Z" fill="#424242"/>
</svg>
