<svg width="422" height="209" viewBox="0 0 422 209" fill="none" xmlns="http://www.w3.org/2000/svg">
<path d="M85.7154 96.6283C85.6284 98.419 85.585 100.686 85.585 103.43C85.585 106.173 85.6284 108.459 85.7154 110.288C85.8022 112.079 85.976 113.508 86.2368 114.574C86.541 115.641 86.954 116.384 87.4756 116.803C88.0407 117.223 88.7795 117.432 89.6924 117.432C90.6051 117.432 91.3223 117.223 91.8439 116.803C92.409 116.384 92.8219 115.641 93.0827 114.574C93.387 113.508 93.5825 112.079 93.6695 110.288C93.7565 108.459 93.7999 106.173 93.7999 103.43C93.7999 100.686 93.7565 98.419 93.6695 96.6283C93.5825 94.7993 93.387 93.3514 93.0827 92.2846C92.8219 91.2177 92.409 90.4747 91.8439 90.0556C91.3223 89.6364 90.6051 89.4268 89.6924 89.4268C88.7795 89.4268 88.0407 89.6364 87.4756 90.0556C86.954 90.4747 86.541 91.2177 86.2368 92.2846C85.976 93.3514 85.8022 94.7993 85.7154 96.6283Z" fill="#394149"/>
<path fill-rule="evenodd" clip-rule="evenodd" d="M88.0252 60.9725C72.3044 61.2674 59.8084 72.6396 60.0606 86.4218L60.3706 103.356L60.0606 120.29C59.8084 134.072 72.3044 145.444 88.0252 145.739L107.346 146.102L126.666 145.739C142.387 145.444 154.883 134.072 154.631 120.29L154.321 103.356L154.631 86.4218C154.883 72.6396 142.387 61.2674 126.666 60.9725L107.346 60.6104L88.0252 60.9725ZM108.013 124.919L100.711 130.463L94.0607 124.176C93.5391 124.253 93.0174 124.31 92.496 124.348C92.0177 124.424 91.4744 124.462 90.8659 124.462H89.6924C86.6063 124.462 83.9983 124.1 81.8685 123.376C79.7387 122.652 78.0219 121.452 76.718 119.776C75.414 118.061 74.4794 115.87 73.9144 113.203C73.3493 110.498 73.0668 107.24 73.0668 103.43C73.0668 99.6194 73.3493 96.3807 73.9144 93.7134C74.4794 91.0081 75.414 88.8174 76.718 87.1408C78.0219 85.4262 79.7387 84.1878 81.8685 83.4258C83.9983 82.6256 86.6063 82.2256 89.6924 82.2256C92.7785 82.2256 95.3863 82.6256 97.5161 83.4258C99.6459 84.1878 101.363 85.4262 102.667 87.1408C103.971 88.8174 104.905 91.0081 105.47 93.7134C106.036 96.3807 106.318 99.6194 106.318 103.43C106.318 107.354 106.014 110.669 105.405 113.374C104.797 116.08 103.797 118.29 102.406 120.004L108.013 124.919ZM128.594 97.7141V95.4281C128.594 93.1038 128.333 91.5225 127.811 90.6844C127.29 89.8461 126.442 89.4269 125.269 89.4269C124.356 89.4269 123.617 89.6365 123.052 90.0557C122.53 90.4748 122.118 91.2178 121.813 92.2847C121.552 93.3515 121.379 94.7994 121.292 96.6284C121.205 98.4191 121.161 100.686 121.161 103.43C121.161 106.173 121.205 108.459 121.292 110.288C121.379 112.079 121.552 113.508 121.813 114.575C122.118 115.641 122.53 116.384 123.052 116.804C123.617 117.223 124.356 117.432 125.269 117.432C126.008 117.432 126.616 117.28 127.094 116.975C127.573 116.632 127.942 116.08 128.203 115.318C128.463 114.556 128.637 113.546 128.724 112.288C128.855 110.993 128.92 109.374 128.92 107.43H140.655V110.46C140.655 113.317 140.221 115.661 139.352 117.489C138.482 119.318 137.33 120.766 135.896 121.833C134.462 122.862 132.81 123.548 130.941 123.891C129.116 124.272 127.225 124.462 125.269 124.462C121.878 124.462 119.097 124.1 116.923 123.376C114.75 122.652 113.055 121.452 111.838 119.776C110.621 118.061 109.773 115.87 109.295 113.203C108.861 110.498 108.643 107.24 108.643 103.43C108.643 99.5431 108.904 96.2474 109.426 93.5421C109.991 90.8368 110.925 88.6458 112.229 86.9694C113.533 85.2928 115.25 84.0925 117.38 83.3686C119.509 82.6066 122.139 82.2256 125.269 82.2256C128.007 82.2256 130.332 82.5305 132.245 83.1401C134.157 83.7498 135.7 84.6261 136.874 85.7691C138.091 86.8741 138.96 88.2268 139.482 89.8271C140.047 91.3892 140.33 93.1611 140.33 95.1424V97.7141H128.594Z" fill="#394149"/>
<path fill-rule="evenodd" clip-rule="evenodd" d="M211.608 89.7366L222.237 99.406L232.866 89.7366H251.333L231.456 106.313L251.333 122.889H232.866L222.237 113.195L211.608 122.889H193.112L212.989 106.313L193.112 89.7366H211.608ZM210.583 106.313L188.964 88.2843H212.314L222.237 97.3108L232.159 88.2843H254.676V88.2596H292.837C301.563 88.1814 308.949 94.5781 308.83 102.253C308.828 105.014 307.976 107.559 306.272 109.824C304.989 111.538 303.363 112.949 301.415 114.021L309.552 123.18V117.24C309.552 112.587 313.52 109.62 318.083 107.652C322.692 105.666 328.507 104.425 333.349 103.421C333.351 103.42 333.354 103.42 333.356 103.419L333.411 103.407C336.396 102.764 338.937 102.216 340.747 101.625C341.663 101.326 342.263 101.055 342.607 100.824C342.65 100.795 342.685 100.769 342.716 100.747C342.611 100.662 342.397 100.536 341.975 100.391C340.99 100.053 339.309 99.7985 336.763 99.7979C334.043 99.8225 331.73 100.016 330.152 100.502C329.374 100.741 328.905 101.014 328.64 101.269C328.416 101.489 328.283 101.75 328.294 102.159L328.335 103.646H310.144V102.193C310.144 99.2118 310.811 96.7189 312.146 94.6763C313.489 92.6246 315.444 91.1265 317.828 90.052C322.506 87.9438 328.95 87.4209 336.136 87.4209C343.494 87.4209 349.602 88.1651 353.927 90.0813C356.115 91.0523 357.894 92.3445 359.117 94.0251C360.343 95.71 360.943 97.6935 360.943 99.9488C360.943 104.122 358.07 106.781 354.549 108.513C351.13 110.195 346.827 111.151 343.253 111.915H360.324V124.292H310.539L310.561 124.317H290.62L283.486 116.226H272.769V124.317H255.451L255.482 124.341H232.158L222.237 115.293L212.316 124.341H188.964L210.583 106.313ZM254.676 123.669V88.9566L233.863 106.313L254.676 123.669ZM284.304 114.774L291.437 122.864H307.168L298.907 113.565C299.424 113.355 299.918 113.122 300.392 112.868C302.2 111.898 303.702 110.609 304.884 109.026C306.408 107.003 307.168 104.734 307.168 102.243C307.283 95.3853 300.657 89.638 292.846 89.712H256.335V122.864H271.107V114.774H284.304ZM334.558 113.367C335.075 112.813 336.012 112.341 337.257 111.915C338.723 111.412 340.611 110.971 342.733 110.531C350.007 108.977 359.284 106.855 359.284 99.9488C359.284 91.858 350.713 88.8732 336.136 88.8732C322.429 88.8732 312.709 90.8307 311.865 100.741C311.825 101.207 311.803 101.691 311.803 102.193H326.635C326.633 102.139 326.633 102.085 326.635 102.032C326.716 99.085 331.356 98.3938 336.756 98.3453C342.027 98.3453 344.452 99.3813 344.452 100.787C344.452 102.523 339.774 103.532 333.9 104.798L333.74 104.833C323.984 106.855 311.212 109.667 311.212 117.24V122.84H358.662V113.367H334.558ZM342.809 100.858C342.807 100.859 342.8 100.849 342.795 100.828C342.809 100.847 342.812 100.858 342.809 100.858ZM290.708 102.243C290.708 101.466 290.012 100.859 289.125 100.859H272.769V103.602H289.125C289.602 103.602 289.935 103.475 290.233 103.214C290.574 102.916 290.708 102.618 290.708 102.243ZM292.367 102.243C292.367 100.664 290.93 99.406 289.125 99.406H271.107V105.055H289.125C290.026 105.055 290.789 104.783 291.409 104.241C292.057 103.673 292.367 103.007 292.367 102.243Z" fill="#394149"/>
<path d="M194.48 146.806H201.556V138.313L208.645 146.806H212.183L219.272 138.313V146.806H226.348V130.886H217.503L210.414 138.846L203.338 130.886H194.48V146.806Z" fill="#394149"/>
<path d="M241.255 130.495C234.423 130.507 228.833 132.236 228.86 138.266V139.427C228.833 145.444 234.423 147.185 241.255 147.197C248.074 147.185 253.665 145.444 253.639 139.427V138.266C253.639 132.248 248.088 130.495 241.255 130.495ZM246.562 139.036C246.603 141.642 244.145 142.116 241.255 142.151C238.353 142.116 235.895 141.642 235.935 139.036V138.645C235.895 136.051 238.353 135.577 241.255 135.541C244.145 135.577 246.603 136.051 246.562 138.645V139.036Z" fill="#394149"/>
<path d="M273.461 138.87C273.461 140.469 272.421 141.784 270.585 141.784H262.834V135.956H270.585C272.421 135.956 273.461 137.259 273.461 138.87ZM255.758 130.91V146.83H271.909C276.892 146.889 280.592 143.194 280.551 138.87C280.592 134.523 276.892 130.851 271.909 130.91H255.758Z" fill="#394149"/>
<path d="M300.252 139.047C300.292 141.665 297.837 142.115 294.945 142.151C292.043 142.115 289.599 141.665 289.626 139.047V130.886H282.549V139.438C282.523 145.456 288.14 147.185 294.945 147.197C301.752 147.185 307.369 145.456 307.342 139.438V130.886H300.252V139.047Z" fill="#394149"/>
<path d="M310.528 130.886V146.806H331.771V141.76H317.604V130.886H310.528Z" fill="#394149"/>
<path d="M334.186 146.83H355.429V142.744H341.262V140.706H355.429V137.022H341.262V134.985H355.429V130.91H334.186V146.83Z" fill="#394149"/>
<path d="M198.554 70.2353V66.8802H209.042C209.55 66.8802 209.992 67.0414 210.353 67.3783C210.729 67.7008 210.91 68.0962 210.91 68.565C210.91 69.0193 210.729 69.4148 210.353 69.7519C209.992 70.0742 209.55 70.2353 209.042 70.2353H198.554ZM189.967 61.1225V80.8132H198.554V76.0077H211.188C215.728 76.0664 219.579 72.6233 219.513 68.565C219.579 64.4922 215.728 61.0784 211.188 61.1225H189.967Z" fill="#394149"/>
<path d="M236.604 60.6104C228.313 60.625 221.529 62.7641 221.561 70.2214V71.6573C221.529 79.1 228.313 81.2535 236.604 81.2681C244.879 81.2535 251.665 79.1 251.631 71.6573V70.2214C251.631 62.7787 244.896 60.6104 236.604 60.6104ZM243.043 71.1736C243.094 74.3968 240.111 74.9829 236.604 75.027C233.081 74.9829 230.099 74.3968 230.148 71.1736V70.6902C230.099 67.4816 233.081 66.8956 236.604 66.8517C240.111 66.8956 243.094 67.4816 243.043 70.6902V71.1736Z" fill="#394149"/>
<path d="M285.11 73.5909L280.012 61.123H270.345L265.233 73.5909L260.136 61.123H250.468L260.136 80.8138H270.345L275.18 70.9684L280.012 80.8138H290.221L299.892 61.123H290.221L285.11 73.5909Z" fill="#394149"/>
<path d="M300.547 80.8138H326.323V75.7593H309.133V73.2392H326.323V68.6828H309.133V66.1629H326.323V61.123H300.547V80.8138Z" fill="#394149"/>
<path d="M330.896 61.1078V80.7988H339.481V75.9932H347.151L351.297 80.7988H360.44L355.639 75.2753C357.081 74.6747 358.245 73.7663 359.112 72.5796C359.999 71.3783 360.44 70.0305 360.44 68.5505C360.507 64.4775 356.654 61.064 352.117 61.1078H330.896ZM349.952 66.8658C351.001 66.8658 351.838 67.613 351.838 68.5505C351.838 69.0047 351.657 69.4003 351.28 69.7372C350.92 70.0597 350.477 70.2209 349.952 70.2209H339.481V66.8658H349.952Z" fill="#394149"/>
</svg>
