<svg width="422" height="209" viewBox="0 0 422 209" fill="none" xmlns="http://www.w3.org/2000/svg">
<path d="M97.2999 122.806L54.7149 96.9425C50.3994 94.3217 51.8664 88.8647 57.2477 87.5814L102.508 76.7657C103.467 76.4611 104.494 76.3622 105.505 76.4772C106.516 76.5923 107.481 76.918 108.32 77.4272C109.159 77.9364 109.849 78.6146 110.331 79.4053C110.813 80.1961 111.073 81.0767 111.091 81.9739L108.409 118.651C108.091 123.005 101.615 125.427 97.2999 122.806Z" fill="black" fill-opacity="0.21"/>
<path d="M83.7932 129.191L58.7051 85.9926C58.1316 85.0043 57.8793 83.8958 57.9758 82.7893C58.0724 81.6828 58.5142 80.6213 59.2525 79.7218C59.9908 78.8223 60.9968 78.1198 62.1598 77.6918C63.3227 77.2638 64.5973 77.1268 65.843 77.2961L112.338 83.6141C113.408 83.7596 114.424 84.1267 115.302 84.6853C116.18 85.2438 116.895 85.9779 117.387 86.8271C117.88 87.6763 118.137 88.6163 118.137 89.57C118.137 90.5237 117.88 91.4637 117.386 92.3127L95.9682 129.193C95.3931 130.178 94.5205 131.005 93.4464 131.582C92.3723 132.159 91.1383 132.465 89.88 132.464C88.6217 132.464 87.3878 132.158 86.3139 131.581C85.2401 131.003 84.3679 130.176 83.7932 129.191Z" fill="#E5E5E5"/>
<path d="M110.977 83.4289L87.8002 80.2793L59.3437 87.0822L70.7021 106.647L97.2999 122.807C97.8867 123.159 98.5322 123.429 99.2132 123.607L109.316 106.212L110.977 83.4289Z" fill="#394149"/>
<path d="M228.376 88.4777C228.376 87.7192 228.631 86.9777 229.11 86.347C229.589 85.7163 230.269 85.2248 231.065 84.9345C231.861 84.6442 232.736 84.5683 233.581 84.7163C234.426 84.8643 235.202 85.2295 235.812 85.7659C236.421 86.3022 236.836 86.9856 237.004 87.7295C237.172 88.4735 237.086 89.2446 236.756 89.9454C236.426 90.6462 235.868 91.2451 235.152 91.6665C234.435 92.0879 233.593 92.3129 232.732 92.3129C231.58 92.3025 230.479 91.8952 229.665 91.1782C228.85 90.4612 228.388 89.4917 228.376 88.4777ZM229.102 94.1876H236.363V115.493H229.102V94.1876Z" fill="#394149"/>
<path d="M267.721 104.84C267.805 106.249 267.572 107.658 267.036 108.986C266.5 110.315 265.67 111.538 264.596 112.583C263.521 113.629 262.222 114.477 260.773 115.079C259.325 115.681 257.756 116.025 256.156 116.091C254.81 116.155 253.465 115.956 252.218 115.506C250.97 115.056 249.852 114.368 248.944 113.491V124.016H241.685V94.1877H248.944V96.1899C249.853 95.3132 250.971 94.6254 252.218 94.1761C253.465 93.7267 254.81 93.5272 256.156 93.592C257.756 93.6578 259.325 94.0015 260.773 94.6033C262.222 95.205 263.521 96.053 264.595 97.0984C265.67 98.1438 266.5 99.366 267.036 100.695C267.572 102.023 267.805 103.432 267.721 104.84ZM260.462 104.84C260.433 103.843 260.071 102.875 259.421 102.058C258.771 101.24 257.861 100.61 256.806 100.246C255.751 99.8814 254.598 99.7991 253.49 100.009C252.382 100.219 251.369 100.712 250.578 101.427C249.787 102.141 249.252 103.045 249.042 104.026C248.831 105.006 248.954 106.019 249.394 106.939C249.834 107.858 250.573 108.643 251.517 109.195C252.462 109.746 253.57 110.04 254.703 110.04C255.481 110.071 256.258 109.957 256.983 109.705C257.707 109.452 258.363 109.068 258.907 108.577C259.45 108.086 259.87 107.499 260.138 106.855C260.406 106.211 260.517 105.525 260.462 104.84Z" fill="#394149"/>
<path d="M290.126 109.098C290.126 113.999 285.286 116.087 280.059 116.087C277.948 116.255 275.828 115.862 273.973 114.957C272.118 114.053 270.614 112.679 269.655 111.014L275.946 107.863C276.201 108.632 276.75 109.301 277.498 109.758C278.247 110.214 279.151 110.431 280.059 110.371C281.802 110.371 282.671 109.9 282.671 109.05C282.671 106.705 270.766 107.942 270.766 100.569C270.766 95.9246 275.217 93.5817 280.261 93.5817C282.153 93.5294 284.026 93.9247 285.686 94.7264C287.345 95.5281 288.731 96.7069 289.697 98.14L283.504 101.081C283.233 100.521 282.781 100.045 282.204 99.7102C281.628 99.3757 280.952 99.1981 280.261 99.1997C279.003 99.1997 278.229 99.6177 278.229 100.393C278.222 102.838 290.126 101.219 290.126 109.098Z" fill="#394149"/>
<path d="M316.658 94.1885V115.494H309.399V113.488C308.56 114.371 307.496 115.068 306.293 115.52C305.09 115.972 303.782 116.166 302.477 116.087C297.59 116.087 293.428 113.019 293.428 107.266V94.1885H300.687V106.333C300.626 106.841 300.692 107.355 300.879 107.838C301.066 108.321 301.371 108.763 301.772 109.132C302.172 109.501 302.66 109.789 303.2 109.975C303.74 110.161 304.319 110.242 304.898 110.21C307.559 110.21 309.408 108.848 309.408 105.821V94.1885H316.658Z" fill="#394149"/>
<path d="M358.265 102.41V115.493H351.006V102.966C351.006 100.836 349.843 99.4713 347.521 99.4713C345.1 99.4713 343.747 100.964 343.747 103.478V115.493H336.486V102.966C336.486 100.836 335.325 99.4713 333.001 99.4713C330.582 99.4713 329.227 100.964 329.227 103.478V115.493H321.968V94.1878H329.239V96.1398C329.991 95.2706 330.979 94.5813 332.112 94.1347C333.244 93.6882 334.486 93.4988 335.724 93.5838C336.966 93.5303 338.203 93.7611 339.315 94.2537C340.426 94.7463 341.373 95.484 342.064 96.3948C342.869 95.4418 343.934 94.6841 345.162 94.1925C346.39 93.7009 347.739 93.4914 349.083 93.5838C354.638 93.5921 358.265 97.0845 358.265 102.41Z" fill="#394149"/>
<path d="M364.415 94.056C367.391 94.056 369.804 91.9319 369.804 89.3117C369.804 86.6915 367.391 84.5674 364.415 84.5674C361.439 84.5674 359.027 86.6915 359.027 89.3117C359.027 91.9319 361.439 94.056 364.415 94.056Z" fill="#394149"/>
<path d="M129.267 84.3877H136.528V115.493H129.267V84.3877ZM140.64 104.84C140.632 102.607 141.377 100.421 142.78 98.5606C144.184 96.7 146.183 95.2479 148.525 94.3882C150.866 93.5286 153.445 93.3 155.934 93.7314C158.423 94.1629 160.711 95.235 162.508 96.8119C164.304 98.3889 165.529 100.4 166.027 102.59C166.525 104.78 166.273 107.051 165.304 109.116C164.335 111.18 162.692 112.945 160.584 114.186C158.475 115.428 155.995 116.091 153.458 116.091C151.773 116.107 150.102 115.827 148.541 115.268C146.98 114.708 145.562 113.881 144.368 112.833C143.175 111.786 142.231 110.54 141.59 109.167C140.95 107.795 140.627 106.324 140.64 104.84ZM159.032 104.84C159.003 103.877 158.653 102.942 158.024 102.153C157.395 101.364 156.516 100.756 155.497 100.404C154.478 100.053 153.363 99.9738 152.293 100.177C151.223 100.38 150.245 100.857 149.481 101.547C148.717 102.237 148.201 103.111 147.997 104.058C147.794 105.005 147.913 105.984 148.338 106.872C148.763 107.76 149.476 108.518 150.388 109.051C151.3 109.584 152.37 109.869 153.465 109.869C154.215 109.888 154.961 109.77 155.656 109.522C156.351 109.274 156.98 108.903 157.504 108.43C158.028 107.958 158.435 107.395 158.7 106.777C158.964 106.159 159.08 105.5 159.041 104.84H159.032ZM195.229 94.1814V114.423C195.229 121.581 188.889 124.606 182.453 124.606C180.188 124.756 177.92 124.355 175.896 123.445C173.873 122.536 172.173 121.153 170.983 119.45L177.177 116.296C177.676 117.185 178.473 117.919 179.459 118.398C180.445 118.878 181.574 119.082 182.695 118.981C183.411 119.067 184.139 119.011 184.827 118.816C185.514 118.621 186.143 118.293 186.667 117.855C187.191 117.418 187.597 116.882 187.854 116.288C188.112 115.694 188.215 115.057 188.155 114.423V112.463C187.305 113.378 186.223 114.106 184.995 114.587C183.768 115.067 182.43 115.288 181.088 115.232C177.894 115.145 174.864 113.966 172.64 111.946C170.416 109.926 169.172 107.222 169.172 104.409C169.172 101.595 170.416 98.8921 172.64 96.872C174.864 94.8518 177.894 93.6732 181.088 93.5858C182.43 93.5293 183.768 93.7503 184.995 94.2312C186.223 94.7121 187.305 95.4395 188.155 96.355V94.1814H195.229ZM188.165 104.408C188.212 103.379 187.91 102.361 187.295 101.484C186.68 100.608 185.782 99.9137 184.716 99.4904C183.649 99.0672 182.464 98.9345 181.311 99.1094C180.158 99.2843 179.091 99.7587 178.247 100.472C177.403 101.185 176.82 102.104 176.574 103.111C176.328 104.118 176.43 105.166 176.866 106.122C177.302 107.077 178.053 107.896 179.022 108.473C179.991 109.05 181.134 109.359 182.304 109.359C183.067 109.406 183.832 109.312 184.551 109.083C185.27 108.855 185.927 108.496 186.479 108.03C187.031 107.564 187.466 107.002 187.756 106.379C188.047 105.756 188.186 105.087 188.165 104.414V104.408ZM199.34 104.826C199.332 102.592 200.077 100.407 201.481 98.546C202.884 96.6853 204.884 95.2333 207.225 94.3736C209.567 93.5139 212.145 93.2854 214.634 93.7168C217.123 94.1483 219.411 95.2204 221.208 96.7973C223.005 98.3743 224.229 100.385 224.727 102.575C225.225 104.766 224.974 107.037 224.005 109.101C223.036 111.165 221.393 112.93 219.284 114.172C217.175 115.413 214.695 116.076 212.158 116.076C210.475 116.092 208.805 115.813 207.245 115.254C205.686 114.696 204.268 113.87 203.075 112.824C201.882 111.778 200.937 110.533 200.296 109.163C199.655 107.792 199.33 106.323 199.34 104.84V104.826ZM217.732 104.826C217.704 103.862 217.354 102.926 216.725 102.137C216.096 101.347 215.217 100.738 214.197 100.386C213.177 100.034 212.062 99.9549 210.991 100.158C209.92 100.362 208.942 100.838 208.177 101.529C207.413 102.22 206.896 103.093 206.693 104.041C206.49 104.989 206.608 105.968 207.034 106.857C207.46 107.745 208.174 108.504 209.086 109.037C209.999 109.57 211.07 109.854 212.166 109.854C212.913 109.872 213.656 109.753 214.349 109.506C215.042 109.259 215.669 108.888 216.192 108.417C216.715 107.947 217.121 107.386 217.386 106.77C217.651 106.155 217.769 105.498 217.732 104.84V104.826Z" fill="#394149"/>
</svg>
