<svg width="422" height="209" viewBox="0 0 422 209" fill="none" xmlns="http://www.w3.org/2000/svg">
<path d="M180.115 84.898C180.115 84.5795 180.115 79.9453 180.115 79.9453H176.974C176.974 79.9453 176.974 84.5076 176.974 84.6516C176.974 85.494 176.083 86.0592 174.583 86.0592C173.012 86.0592 172.156 85.5145 172.156 84.6411C172.156 84.4973 172.156 79.9453 172.156 79.9453H168.98C168.98 79.9453 168.98 84.2712 168.98 84.6411C168.98 87.0866 171.265 88.1245 174.454 88.1245C177.865 88.1245 180.115 87.0764 180.115 84.898Z" fill="#394149"/>
<path d="M190.695 88.0114V85.864H185.092V79.9453H181.915V88.0114H190.695Z" fill="#394149"/>
<path d="M200.135 81.9697V79.9453H189.152V81.9697H193.032V88.0114H196.244V81.9697H200.135Z" fill="#394149"/>
<path d="M204.358 88.0114V79.9453H201.135V88.0114H204.358Z" fill="#394149"/>
<path d="M219.147 88.0114V79.9453H215.174L212.665 84.7851L210.274 79.9453H206.171V88.0114H209.16V83.6548L211.317 88.0114H213.99L216.17 83.6548V88.0114H219.147Z" fill="#394149"/>
<path d="M224.126 86.5215H229.096L229.905 88.0114H233.292L228.651 79.9453H224.864L219.953 88.0114H223.27L224.126 86.5215ZM228.1 84.713H225.158L226.318 82.771L226.67 82.0313L226.998 82.7607L228.1 84.713Z" fill="#394149"/>
<path d="M243.256 81.9697V79.9453H232.273V81.9697H236.153V88.0114H239.365V81.9697H243.256Z" fill="#394149"/>
<path d="M253.937 88.0114V86.0078H247.34V84.9596H253.667V82.9971H247.34V81.9592H253.856V79.9453H244.245V88.0114H253.937Z" fill="#394149"/>
<path d="M192.936 92.2988H189.9C189.9 92.2988 187.919 97.3748 187.919 97.4981C187.919 97.3748 186.066 92.2988 186.066 92.2988H182.773C182.773 92.2988 180.932 97.3748 180.932 97.4981C180.932 97.3748 178.94 92.2988 178.94 92.2988H175.529L178.975 100.365H182.409C182.409 100.365 184.261 95.5459 184.273 95.4123C184.285 95.5459 186.125 100.365 186.125 100.365H189.571L192.936 92.2988Z" fill="#394149"/>
<path d="M197.089 100.365V92.2988H193.866V100.365H197.089Z" fill="#394149"/>
<path d="M209.628 100.365V92.2988H206.627V96.6864L202.208 92.2988H198.902V100.365H201.927V95.8746L206.487 100.365H209.628Z" fill="#394149"/>
<path d="M222.185 100.365V92.2988H219.184V96.6864L214.765 92.2988H211.46V100.365H214.484V95.8746L219.044 100.365H222.185Z" fill="#394149"/>
<path d="M233.711 100.365V98.3613H227.112V97.3132H233.441V95.3507H227.112V94.3128H233.629V92.2988H224.017V100.365H233.711Z" fill="#394149"/>
<path d="M246.102 94.7546C246.102 94.0252 245.902 93.501 245.48 93.1208C244.929 92.6071 243.98 92.2988 242.526 92.2988H235.201V100.365H238.331V97.5188H241.179L243.465 100.365H246.958L244.181 97.0768C244.8 96.9946 245.306 96.6659 245.633 96.2755C245.926 95.9158 246.102 95.3814 246.102 94.7546ZM243.055 95.0114C243.055 95.1452 243.031 95.3095 242.948 95.4328C242.831 95.6382 242.526 95.7206 242.023 95.7206H238.342V94.2511H241.963C242.457 94.2511 242.786 94.323 242.948 94.5903C243.031 94.6929 243.055 94.8574 243.055 95.0114Z" fill="#394149"/>
<path d="M181.437 108.301C181.437 108.169 181.437 104.359 181.437 104.359H180.339C180.339 104.359 180.339 108.153 180.339 108.239C180.339 109.154 179.357 109.674 177.941 109.674C176.268 109.674 175.445 109.116 175.445 108.231C175.445 108.146 175.445 104.359 175.445 104.359H174.338C174.338 104.359 174.338 108.053 174.338 108.2C174.338 109.814 175.772 110.528 177.896 110.528C180.091 110.528 181.437 109.767 181.437 108.301Z" fill="#394149"/>
<path d="M189.311 110.45V109.558H184.523V104.359H183.417V110.45H189.311Z" fill="#394149"/>
<path d="M195.598 105.244V104.359H188.216V105.244H191.349V110.45H192.465V105.244H195.598Z" fill="#394149"/>
<path d="M203.465 106.082C203.465 105.647 203.359 105.329 203.173 105.073C202.845 104.646 202.217 104.359 201.172 104.359H196.676V110.45H197.765V107.882H200.933L202.872 110.45H204.146L202.049 107.719C202.58 107.665 202.996 107.401 203.217 107.059C203.376 106.827 203.465 106.485 203.465 106.082ZM202.367 106.159C202.367 106.33 202.323 106.54 202.243 106.679C202.102 106.904 201.774 107.021 201.243 107.028H197.774C197.774 107.013 197.774 105.228 197.774 105.228H201.04C201.703 105.228 202.057 105.368 202.243 105.632C202.323 105.756 202.367 105.965 202.367 106.159Z" fill="#394149"/>
<path d="M206.615 108.945H210.943L211.828 110.45H213.014L209.491 104.359H208.19L204.552 110.45H205.712L206.615 108.945ZM210.482 108.084H207.093L208.5 105.748L208.81 105.182L209.119 105.748L210.482 108.084Z" fill="#394149"/>
<path d="M224.239 109.868C224.514 109.589 224.638 109.193 224.638 108.766C224.638 108.363 224.505 107.959 224.231 107.711C223.956 107.478 223.514 107.285 223.027 107.246C223.31 107.207 223.531 107.052 223.682 106.889C223.921 106.648 224.062 106.26 224.062 105.872C224.062 105.461 223.921 105.089 223.62 104.833C223.292 104.546 222.735 104.359 221.956 104.359H217.282V110.45H222.301C223.239 110.45 223.894 110.241 224.239 109.868ZM222.92 106.066C222.92 106.338 222.823 106.578 222.655 106.718C222.487 106.881 222.204 106.951 221.903 106.951H218.362V105.197H221.699C222.106 105.197 222.416 105.267 222.628 105.438C222.814 105.593 222.92 105.818 222.92 106.066ZM223.274 109.278C223.053 109.496 222.673 109.604 222.115 109.604H218.362V107.797H222.142C222.655 107.797 223.009 107.89 223.222 108.068C223.416 108.231 223.496 108.441 223.496 108.681C223.496 108.929 223.434 109.139 223.274 109.278Z" fill="#394149"/>
<path d="M232.673 110.45V109.558H227.274V107.82H232.46V106.935H227.274V105.244H232.611V104.359H226.194V110.45H232.673Z" fill="#394149"/>
<path d="M241.32 108.65C241.32 107.656 240.569 107.144 238.718 106.958C238.408 106.919 237.735 106.857 237.372 106.818C235.655 106.64 235.133 106.438 235.133 105.919C235.133 105.414 235.708 105.127 237.443 105.127C238.788 105.127 239.479 105.36 239.825 105.779C239.922 105.895 239.975 106.035 240.001 106.143H241.186C241.153 105.965 241.072 105.717 240.948 105.515C240.471 104.793 239.489 104.273 237.443 104.273C235 104.266 233.991 105.042 233.991 106.004C233.991 106.966 234.779 107.455 236.824 107.664C237.178 107.703 237.806 107.765 238.116 107.796C239.701 107.967 240.197 108.176 240.197 108.758C240.197 109.294 239.629 109.682 237.815 109.682C236.328 109.682 235.531 109.449 235.213 108.999C235.115 108.875 235.053 108.681 235.044 108.549H233.876C233.903 108.828 233.991 109.131 234.15 109.371C234.611 110.108 235.691 110.535 237.779 110.535C240.275 110.535 241.32 109.829 241.32 108.65Z" fill="#394149"/>
<path d="M249.256 105.244V104.359H241.875V105.244H245.008V110.45H246.124V105.244H249.256Z" fill="#394149"/>
<path d="M171.205 115.745C171.205 115.124 171.064 114.705 170.824 114.387C170.488 113.929 169.833 113.688 168.691 113.688H164.301V119.779H165.399V117.793C165.399 117.793 168.497 117.793 168.647 117.793C169.718 117.785 170.453 117.568 170.842 117.071C171.09 116.769 171.205 116.334 171.205 115.745ZM170.09 115.745C170.09 116.055 170.054 116.288 169.939 116.443C169.736 116.73 169.32 116.908 168.461 116.908C168.382 116.908 165.399 116.908 165.399 116.908V114.558H168.497C169.302 114.558 169.718 114.72 169.939 115.038C170.045 115.178 170.09 115.434 170.09 115.745Z" fill="#394149"/>
<path d="M179.216 119.779V118.887H173.817V117.149H179.004V116.264H173.817V114.573H179.154V113.688H172.737V119.779H179.216Z" fill="#394149"/>
<path d="M187.66 115.411C187.66 114.976 187.554 114.658 187.368 114.402C187.04 113.975 186.412 113.688 185.367 113.688H180.871V119.779H181.96V117.211H185.129L187.067 119.779H188.341L186.244 117.048C186.775 116.994 187.191 116.73 187.412 116.389C187.571 116.156 187.66 115.814 187.66 115.411ZM186.562 115.488C186.562 115.659 186.518 115.869 186.438 116.008C186.297 116.233 185.969 116.35 185.438 116.357H181.969C181.969 116.342 181.969 114.558 181.969 114.558H185.235C185.898 114.558 186.252 114.697 186.438 114.961C186.518 115.085 186.562 115.294 186.562 115.488Z" fill="#394149"/>
<path d="M195.866 114.573V113.688H189.688V119.779H190.785V117.188H195.636V116.28H190.785V114.573H195.866Z" fill="#394149"/>
<path d="M200.903 113.579C199.425 113.579 198.407 113.897 197.681 114.565C197.071 115.084 196.805 115.806 196.805 116.714C196.805 117.707 197.15 118.452 197.788 118.956C198.469 119.554 199.513 119.864 200.903 119.864C202.337 119.864 203.452 119.554 204.116 118.925C204.691 118.413 204.992 117.684 204.992 116.706C204.992 115.759 204.736 115.038 204.125 114.526C203.426 113.889 202.381 113.579 200.903 113.579ZM200.903 118.995C199.93 118.995 199.239 118.809 198.717 118.436C198.186 118.056 197.929 117.474 197.929 116.729C197.929 116.031 198.15 115.449 198.575 115.1C199.062 114.696 199.806 114.456 200.894 114.456C202.018 114.456 202.718 114.689 203.24 115.092C203.682 115.434 203.877 116.039 203.877 116.721C203.877 117.412 203.674 118.002 203.222 118.359C202.7 118.785 201.965 118.995 200.903 118.995Z" fill="#394149"/>
<path d="M213.297 115.411C213.297 114.976 213.191 114.658 213.005 114.402C212.677 113.975 212.049 113.688 211.005 113.688H206.508V119.779H207.597V117.211H210.765L212.704 119.779H213.978L211.881 117.048C212.412 116.994 212.828 116.73 213.049 116.389C213.208 116.156 213.297 115.814 213.297 115.411ZM212.199 115.488C212.199 115.659 212.155 115.869 212.075 116.008C211.934 116.233 211.606 116.35 211.075 116.357H207.606C207.606 116.342 207.606 114.558 207.606 114.558H210.872C211.535 114.558 211.89 114.697 212.075 114.961C212.155 115.085 212.199 115.294 212.199 115.488Z" fill="#394149"/>
<path d="M223.884 119.779V113.688H222.45L219.591 118.701L216.785 113.688H215.325V119.779H216.378V115.093L218.998 119.779H220.148L222.83 115.093V119.779H223.884Z" fill="#394149"/>
<path d="M226.992 118.274H231.32L232.205 119.779H233.391L229.868 113.688H228.567L224.93 119.779H226.089L226.992 118.274ZM230.86 117.413H227.47L228.877 115.077L229.187 114.511L229.497 115.077L230.86 117.413Z" fill="#394149"/>
<path d="M241.365 119.779V113.688H240.311V118.421L235.71 113.688H234.462V119.779H235.533V115.015L240.17 119.779H241.365Z" fill="#394149"/>
<path d="M250.914 117.505H249.762C249.726 117.784 249.602 118.064 249.381 118.273C248.904 118.762 248.143 118.972 246.975 118.972C245.993 118.972 244.939 118.731 244.433 118.102C244.169 117.808 244 117.373 244 116.721C244 116.14 244.116 115.705 244.372 115.41C244.796 114.813 245.69 114.502 246.949 114.502C248.17 114.502 248.94 114.797 249.347 115.208C249.576 115.426 249.71 115.682 249.753 115.984H250.904C250.868 115.643 250.744 115.239 250.48 114.898C249.912 114.161 248.868 113.579 246.956 113.579C245.134 113.579 244.045 114.091 243.442 114.859C243.053 115.301 242.858 115.922 242.858 116.714C242.858 117.598 243.098 118.25 243.513 118.708C244.116 119.429 245.275 119.864 247.027 119.864C248.825 119.864 249.896 119.391 250.427 118.638C250.728 118.273 250.878 117.839 250.914 117.505Z" fill="#394149"/>
<path d="M258.834 119.779V118.887H253.434V117.149H258.622V116.264H253.434V114.573H258.772V113.688H252.354V119.779H258.834Z" fill="#394149"/>
<path d="M177.888 125.829L179.212 129.4H183.495L180.03 131.608L181.354 135.179L177.888 132.972L174.422 135.179L175.746 131.608L172.281 129.4H176.564L177.888 125.829Z" fill="#394149"/>
<path d="M193.17 125.829L194.52 129.4H198.892L195.355 131.608L196.706 135.179L193.17 132.972L189.633 135.179L190.984 131.608L187.448 129.4H191.819L193.17 125.829Z" fill="#394149"/>
<path d="M208.33 125.829L209.681 129.4H214.052L210.516 131.608L211.867 135.179L208.33 132.972L204.794 135.179L206.145 131.608L202.609 129.4H206.98L208.33 125.829Z" fill="#394149"/>
<path d="M223.492 125.829L224.842 129.4H229.213L225.677 131.608L227.028 135.179L223.492 132.972L219.955 135.179L221.306 131.608L217.77 129.4H222.141L223.492 125.829Z" fill="#394149"/>
<path d="M238.773 125.829L240.097 129.4H244.381L240.914 131.608L242.238 135.179L238.773 132.972L235.307 135.179L236.631 131.608L233.166 129.4H237.449L238.773 125.829Z" fill="#394149"/>
<path d="M185.313 65.5762L186.314 68.2765H189.553L186.932 69.9453L187.933 72.6454L185.313 70.9767L182.693 72.6454L183.694 69.9453L181.073 68.2765H184.312L185.313 65.5762Z" fill="#394149"/>
<path d="M196.867 65.5723L197.889 68.2726H201.193L198.52 69.9414L199.541 72.6415L196.867 70.9726L194.193 72.6415L195.215 69.9414L192.541 68.2726H195.846L196.867 65.5723Z" fill="#394149"/>
<path d="M208.33 65.5723L209.351 68.2726H212.656L209.982 69.9414L211.004 72.6415L208.33 70.9726L205.656 72.6415L206.677 69.9414L204.004 68.2726H207.309L208.33 65.5723Z" fill="#394149"/>
<path d="M219.794 65.5723L220.815 68.2726H224.12L221.447 69.9414L222.468 72.6415L219.794 70.9726L217.12 72.6415L218.142 69.9414L215.468 68.2726H218.773L219.794 65.5723Z" fill="#394149"/>
<path d="M231.347 65.5723L232.348 68.2726H235.587L232.966 69.9414L233.967 72.6415L231.347 70.9726L228.727 72.6415L229.728 69.9414L227.107 68.2726H230.346L231.347 65.5723Z" fill="#394149"/>
<path fill-rule="evenodd" clip-rule="evenodd" d="M139.18 114.177C134.763 89.9525 147.654 65.9848 173.46 55.6924L173.699 56.1513C148.152 66.3401 135.367 90.0733 139.748 114.098C144.594 140.677 169.054 156.617 199.008 157.386L198.991 157.89C168.804 157.115 144.076 141.031 139.18 114.177Z" fill="#394149"/>
<path d="M167.865 61.8756C163.096 61.9709 157.514 64.3284 154.221 67.7526C156.862 69.9026 161.111 69.1078 164.17 68.6681C168.534 68.0406 173.176 66.8251 177.295 65.1044C175.601 61.9443 171.039 61.8122 167.865 61.8756Z" fill="#394149"/>
<path d="M164.114 56.7175C161.29 60.5748 157.923 64.4085 154.26 67.7845C151.195 65.2623 153.045 61.0649 154.296 58.4547C156.562 53.7251 161.995 49.6464 167.675 47.5596C169.234 50.6689 165.848 54.35 164.114 56.7175Z" fill="#394149"/>
<path d="M154.064 72.6916C149.599 74.0831 145.761 78.0002 143.835 81.9328C147.046 83.2415 150.696 81.3515 153.367 80.0931C157.034 78.3651 160.775 75.9809 163.718 73.2216C161.059 70.7617 157.02 71.7708 154.064 72.6916Z" fill="#394149"/>
<path d="M148.651 68.8378C147.674 73.2372 146.035 77.7972 143.882 81.9534C140.125 80.4001 140.269 75.9513 140.429 73.1202C140.704 68.2879 143.788 62.7774 148.082 59.2754C150.71 61.7458 149.274 66.0353 148.651 68.8378Z" fill="#394149"/>
<path d="M145.472 86.6569C141.751 89.2302 139.496 93.9989 138.973 98.2573C142.493 98.6115 145.307 95.8034 147.4 93.8768C150.251 91.2537 152.949 87.9636 154.662 84.5216C151.307 82.9169 147.896 84.9808 145.472 86.6569Z" fill="#394149"/>
<path d="M139.025 84.4852C139.689 88.9279 139.69 93.7342 139.026 98.2637C134.933 97.8229 133.575 93.5142 132.773 90.8112C131.388 86.1455 132.317 80.1187 135.014 75.583C138.385 77.2189 138.601 81.6455 139.025 84.4852Z" fill="#394149"/>
<path d="M142.552 101.901C139.607 105.682 138.572 111.607 139.896 116.37C143.787 115.562 145.716 111.7 147.265 108.973C149.323 105.348 151.063 101.12 151.685 96.9709C147.465 96.201 144.491 99.4097 142.552 101.901Z" fill="#394149"/>
<path d="M134.822 101.518C137.116 106.174 138.907 111.298 139.954 116.358C135.492 117.198 132.28 113.091 130.414 110.367C127.092 105.518 126.125 98.7972 127.341 92.9971C131.426 93.715 133.424 98.6819 134.822 101.518Z" fill="#394149"/>
<path d="M144.612 118.351C143.031 122.938 144.129 129.173 147.33 133.485C150.848 131.478 151.335 127.059 151.833 123.891C152.491 119.71 152.8 115.078 151.984 110.743C147.485 111.247 145.668 115.287 144.612 118.351Z" fill="#394149"/>
<path d="M136.793 120.315C140.74 124.285 144.381 128.812 147.384 133.456C143.311 135.685 138.532 132.64 135.634 130.485C130.492 126.663 127.153 120.166 126.362 114.041C130.641 113.537 134.412 117.92 136.793 120.315Z" fill="#394149"/>
<path d="M152.907 133.961C153.247 139.3 157.212 144.902 162.491 148.091C165.041 145.031 163.443 140.343 162.573 137.07C161.402 132.664 159.782 128.075 157.373 124.004C153.174 125.949 152.684 130.445 152.907 133.961Z" fill="#394149"/>
<path d="M145.806 138.472C151.526 141.258 157.23 144.546 162.533 148.044C159.357 151.71 153.009 150.248 149.074 149.07C142.14 146.994 135.958 141.52 132.729 135.439C136.823 133.59 142.428 136.826 145.806 138.472Z" fill="#394149"/>
<path d="M169.198 147.005C172.631 152.497 180.454 156.08 187.821 156.942C188.614 152.949 183.686 148.996 181 146.41C177.177 142.728 173.193 138.907 168.726 135.724C165.379 139.13 167.148 143.726 169.198 147.005Z" fill="#394149"/>
<path d="M164.295 153.966C172.099 154.677 180.035 155.701 187.834 156.882C187.089 161.919 177.97 162.732 173.829 163.03C165.341 163.64 155.897 160.649 149.322 155.613C152.588 152.244 160.138 153.587 164.295 153.966Z" fill="#394149"/>
<path d="M179.326 51.4636C174.087 52.7738 167.954 55.2595 164.924 59.8478C170.424 59.3224 175.828 57.6072 181.114 56.3003C187.034 54.8362 193.268 53.7413 199 51.7205C192.723 49.5189 185.323 49.9638 179.326 51.4636Z" fill="#394149"/>
<path fill-rule="evenodd" clip-rule="evenodd" d="M280.685 114.098C285.065 90.0733 272.281 66.3405 246.734 56.1513L246.973 55.6924C272.779 65.985 285.67 89.9525 281.252 114.177C276.358 141.031 251.629 157.115 221.442 157.89L221.425 157.386C251.379 156.617 275.838 140.677 280.685 114.098Z" fill="#394149"/>
<path d="M252.568 61.8756C257.337 61.9709 262.918 64.3284 266.213 67.7526C263.571 69.9026 259.32 69.1078 256.264 68.6681C251.898 68.0406 247.256 66.8251 243.139 65.1044C244.832 61.9443 249.392 61.8122 252.568 61.8756Z" fill="#394149"/>
<path d="M256.319 56.7175C259.144 60.5748 262.51 64.4085 266.172 67.7845C269.238 65.2623 267.388 61.0649 266.137 58.4547C263.872 53.7251 258.438 49.6464 252.757 47.5596C251.197 50.6689 254.585 54.35 256.319 56.7175Z" fill="#394149"/>
<path d="M266.37 72.6916C270.836 74.0831 274.672 78.0002 276.598 81.9328C273.387 83.2415 269.737 81.3515 267.066 80.0931C263.4 78.3651 259.659 75.9809 256.717 73.2216C259.375 70.7617 263.414 71.7708 266.37 72.6916Z" fill="#394149"/>
<path d="M271.782 68.8378C272.76 73.2372 274.398 77.7972 276.551 81.9534C280.308 80.4001 280.165 75.9513 280.003 73.1202C279.729 68.2879 276.646 62.7774 272.352 59.2754C269.722 61.7458 271.16 66.0353 271.782 68.8378Z" fill="#394149"/>
<path d="M274.96 86.6569C278.682 89.2302 280.938 93.9989 281.46 98.2573C277.941 98.6115 275.127 95.8034 273.034 93.8768C270.183 91.2537 267.484 87.9636 265.772 84.5216C269.126 82.9169 272.538 84.9808 274.96 86.6569Z" fill="#394149"/>
<path d="M281.41 84.4852C280.744 88.9274 280.744 93.7342 281.407 98.2637C285.501 97.8229 286.86 93.5142 287.661 90.8112C289.046 86.1455 288.116 80.1187 285.42 75.583C282.049 77.2189 281.832 81.6455 281.41 84.4852Z" fill="#394149"/>
<path d="M277.881 101.901C280.825 105.682 281.86 111.607 280.537 116.37C276.646 115.562 274.717 111.701 273.167 108.973C271.11 105.348 269.369 101.12 268.747 96.9709C272.967 96.201 275.943 99.4097 277.881 101.901Z" fill="#394149"/>
<path d="M285.611 101.518C283.317 106.174 281.526 111.298 280.48 116.358C284.941 117.198 288.152 113.091 290.019 110.367C293.34 105.518 294.308 98.7972 293.092 92.9971C289.008 93.715 287.008 98.6819 285.611 101.518Z" fill="#394149"/>
<path d="M275.821 118.351C277.402 122.938 276.305 129.173 273.103 133.485C269.587 131.478 269.098 127.059 268.599 123.891C267.944 119.71 267.634 115.078 268.449 110.743C272.948 111.247 274.765 115.287 275.821 118.351Z" fill="#394149"/>
<path d="M283.639 120.315C279.693 124.286 276.052 128.812 273.048 133.456C277.121 135.685 281.901 132.64 284.8 130.485C289.94 126.663 293.28 120.166 294.072 114.041C289.792 113.537 286.021 117.92 283.639 120.315Z" fill="#394149"/>
<path d="M267.524 133.961C267.186 139.3 263.221 144.902 257.942 148.091C255.391 145.031 256.991 140.343 257.859 137.07C259.029 132.664 260.651 128.075 263.059 124.004C267.26 125.949 267.748 130.445 267.524 133.961Z" fill="#394149"/>
<path d="M274.627 138.472C268.907 141.258 263.204 144.546 257.902 148.044C261.077 151.71 267.424 150.248 271.358 149.07C278.294 146.994 284.476 141.52 287.704 135.439C283.61 133.59 278.005 136.826 274.627 138.472Z" fill="#394149"/>
<path d="M251.235 147.005C247.802 152.497 239.98 156.08 232.612 156.942C231.819 152.949 236.747 148.996 239.434 146.41C243.256 142.728 247.24 138.907 251.708 135.724C255.055 139.13 253.283 143.726 251.235 147.005Z" fill="#394149"/>
<path d="M256.137 153.966C248.334 154.677 240.399 155.701 232.599 156.882C233.344 161.919 242.464 162.732 246.603 163.03C255.093 163.64 264.537 160.649 271.11 155.613C267.846 152.244 260.295 153.587 256.137 153.966Z" fill="#394149"/>
<path d="M241.107 51.4636C246.346 52.7738 252.48 55.2595 255.508 59.8478C250.01 59.3224 244.605 57.6072 239.319 56.3003C233.399 54.8362 227.165 53.7413 221.433 51.7205C227.711 49.5189 235.111 49.9638 241.107 51.4636Z" fill="#394149"/>
<path d="M213.624 49.0894L210.935 43.8896L208.298 48.9926L202.164 45.6586L206.105 52.9199H215.908L219.707 45.6586L213.624 49.0894Z" fill="#394149"/>
<path d="M215.845 54.0488H206.027V55.3189H215.845V54.0488Z" fill="#394149"/>
<path d="M211.638 152.303L213.22 156.571H218.339L214.197 159.209L215.779 163.477L211.638 160.839L207.496 163.477L209.078 159.209L204.936 156.571H210.056L211.638 152.303Z" fill="#394149"/>
</svg>
