<?xml version="1.0" encoding="UTF-8" standalone="no" ?>
<!DOCTYPE svg PUBLIC "-//W3C//DTD SVG 1.1//EN" "http://www.w3.org/Graphics/SVG/1.1/DTD/svg11.dtd">
<svg xmlns="http://www.w3.org/2000/svg" xmlns:xlink="http://www.w3.org/1999/xlink" version="1.1" width="231.1746" height="137.92000000000002" xml:space="preserve">
<desc>Created with Fabric.js 1.6.0-rc.1</desc>
<defs></defs>
<g style="stroke: none; stroke-width: 1; stroke-dasharray: none; stroke-linecap: butt; stroke-linejoin: miter; stroke-miterlimit: 10; fill: none; fill-rule: nonzero; opacity: 1;" transform="translate(103 10) scale(0.67 0.67)" >
  <path d="M 61.9 813 C 61.9 460 348 174 701 174 c 359 0 639 286 639 639 c 0 126 -40 247 -100 347 c 110 -130 170 -284 170 -457 C 1410 315 1090 0 703 0 C 315 0 0 315 0 703 C 0 867 56 1020 150 1140 C 93.9 1040 61.9 932 61.9 813" style="stroke: none; stroke-width: 1; stroke-dasharray: none; stroke-linecap: butt; stroke-linejoin: miter; stroke-miterlimit: 10; fill: #173036; fill-rule: nonzero; opacity: 1;" transform=" matrix(0.125 0 0 -0.125 0 176) " stroke-linecap="round" />
  <path d="m 797 1360 c -298 0 -540 -240 -540 -542 c 0 -299 242 -541 540 -541 c 107 0 203 31 293 84 C 983 274 850 222 704 222 C 376 222 110 488 110 816 c 0 324 266 594 594 594 c 138 0 266 -50 366 -130 c -80 50 -173 80 -273 80" style="stroke: none; stroke-width: 1; stroke-dasharray: none; stroke-linecap: butt; stroke-linejoin: miter; stroke-miterlimit: 10; fill: #69cae8; fill-rule: nonzero; opacity: 1;" transform=" matrix(0.125 0 0 -0.125 0 176) " stroke-linecap="round" />
  <path d="m 1050 446 c 180 173 180 455 0 624 c -170 180 -451 180 -625 0 c -62 -60 -101 -133 -119 -213 c 9 111 56 223 141 303 c 191 190 500 190 693 0 c 190 -190 190 -500 0 -690 c -80 -81 -184 -127 -289 -140 c 74 19 144 58 199 116" style="stroke: none; stroke-width: 1; stroke-dasharray: none; stroke-linecap: butt; stroke-linejoin: miter; stroke-miterlimit: 10; fill: #17945c; fill-rule: nonzero; opacity: 1;" transform=" matrix(0.125 0 0 -0.125 0 176) " stroke-linecap="round" />
</g>
  <g transform="translate(54.24 69.65) scale(1.56 1.56)">
   <text font-family="Bombardier" font-size="40" font-weight="normal" style="stroke: none; stroke-width: 1; stroke-dasharray: none; stroke-linecap: butt; stroke-linejoin: miter; stroke-miterlimit: 10; fill: #173036; fill-rule: nonzero; opacity: 1;" ><tspan x="-27.86" y="8.98" style="stroke: none; stroke-width: 0; stroke-dasharray: none; stroke-linecap: butt; stroke-linejoin: miter; stroke-miterlimit: 4; fill: #173036; fill-rule: ; opacity: 1;">L</tspan><tspan x="-10.14" y="8.98" style="stroke: none; stroke-width: 0; stroke-dasharray: none; stroke-linecap: butt; stroke-linejoin: miter; stroke-miterlimit: 4; fill: #173036; fill-rule: ; opacity: 1;">e</tspan><tspan x="9.58" y="8.98" style="stroke: none; stroke-width: 0; stroke-dasharray: none; stroke-linecap: butt; stroke-linejoin: miter; stroke-miterlimit: 4; fill: #173036; fill-rule: ; opacity: 1;">x</tspan></text>
 </g>
</svg>